bicep_curl
version=1
nRows=181
nColumns=3
inDegrees=yes

# SIMM Motion File Header:
name bicep_curl
datacolumns 3
datarows 181
otherdata 1
range 0.0000 0.1800
endheader
time	/jointset/r_shoulder/r_shoulder_elev/value	/jointset/r_elbow/r_elbow_flex/value
0.0000	0.0000	32.6200
0.0010	0.0000	32.6162
0.0020	0.0000	32.6124
0.0030	0.0000	32.6087
0.0040	0.0000	32.6049
0.0050	0.0000	32.6011
0.0060	0.0000	32.5973
0.0070	0.0000	32.5935
0.0080	0.0000	32.5898
0.0090	0.0000	32.5860
0.0100	0.0000	32.5822
0.0110	0.0000	32.5784
0.0120	0.0000	32.5746
0.0130	0.0000	32.5709
0.0140	0.0000	32.5671
0.0150	0.0000	32.5633
0.0160	0.0000	32.5595
0.0170	0.0000	32.5557
0.0180	0.0000	32.5520
0.0190	0.0000	32.5482
0.0200	0.0000	32.5444
0.0210	0.0000	32.5406
0.0220	0.0000	32.5368
0.0230	0.0000	32.5331
0.0240	0.0000	32.5293
0.0250	0.0000	32.5255
0.0260	0.0000	32.5217
0.0270	0.0000	32.5179
0.0280	0.0000	32.5142
0.0290	0.0000	32.5104
0.0300	0.0000	32.5066
0.0310	0.0000	32.5028
0.0320	0.0000	32.4990
0.0330	0.0000	32.4953
0.0340	0.0000	32.4915
0.0350	0.0000	32.4877
0.0360	0.0000	32.4839
0.0370	0.0000	32.4801
0.0380	0.0000	32.4764
0.0390	0.0000	32.4726
0.0400	0.0000	32.4688
0.0410	0.0000	32.4650
0.0420	0.0000	32.4612
0.0430	0.0000	32.4575
0.0440	0.0000	32.4537
0.0450	0.0000	32.4499
0.0460	0.0000	32.4461
0.0470	0.0000	32.4423
0.0480	0.0000	32.4386
0.0490	0.0000	32.4348
0.0500	0.0000	32.4310
0.0510	0.0000	32.4272
0.0520	0.0000	32.4234
0.0530	0.0000	32.4197
0.0540	0.0000	32.4159
0.0550	0.0000	32.4121
0.0560	0.0000	32.4083
0.0570	0.0000	32.4045
0.0580	0.0000	32.4008
0.0590	0.0000	32.3970
0.0600	0.0000	32.3932
0.0610	0.0000	32.3894
0.0620	0.0000	32.3856
0.0630	0.0000	32.3819
0.0640	0.0000	32.3781
0.0650	0.0000	32.3743
0.0660	0.0000	32.3705
0.0670	0.0000	32.3667
0.0680	0.0000	32.3630
0.0690	0.0000	32.3592
0.0700	0.0000	32.3554
0.0710	0.0000	32.3516
0.0720	0.0000	32.3478
0.0730	0.0000	32.3441
0.0740	0.0000	32.3403
0.0750	0.0000	32.3365
0.0760	0.0000	32.3327
0.0770	0.0000	32.3289
0.0780	0.0000	32.3252
0.0790	0.0000	32.3214
0.0800	0.0000	32.3176
0.0810	0.0000	32.3138
0.0820	0.0000	32.3100
0.0830	0.0000	32.3063
0.0840	0.0000	32.3025
0.0850	0.0000	32.2987
0.0860	0.0000	32.2949
0.0870	0.0000	32.2911
0.0880	0.0000	32.2874
0.0890	0.0000	32.2836
0.0900	0.0000	32.2798
0.0910	0.0000	32.2760
0.0920	0.0000	32.2722
0.0930	0.0000	32.2685
0.0940	0.0000	32.2647
0.0950	0.0000	32.2609
0.0960	0.0000	32.2571
0.0970	0.0000	32.2533
0.0980	0.0000	32.2496
0.0990	0.0000	32.2458
0.1000	0.0000	32.2420
0.1010	0.0000	32.2382
0.1020	0.0000	32.2344
0.1030	0.0000	32.2307
0.1040	0.0000	32.2269
0.1050	0.0000	32.2231
0.1060	0.0000	32.2193
0.1070	0.0000	32.2155
0.1080	0.0000	32.2118
0.1090	0.0000	32.2080
0.1100	0.0000	32.2042
0.1110	0.0000	32.2004
0.1120	0.0000	32.1966
0.1130	0.0000	32.1929
0.1140	0.0000	32.1891
0.1150	0.0000	32.1853
0.1160	0.0000	32.1815
0.1170	0.0000	32.1777
0.1180	0.0000	32.1740
0.1190	0.0000	32.1702
0.1200	0.0000	32.1664
0.1210	0.0000	32.1626
0.1220	0.0000	32.1588
0.1230	0.0000	32.1551
0.1240	0.0000	32.1513
0.1250	0.0000	32.1475
0.1260	0.0000	32.1437
0.1270	0.0000	32.1399
0.1280	0.0000	32.1362
0.1290	0.0000	32.1324
0.1300	0.0000	32.1286
0.1310	0.0000	32.1248
0.1320	0.0000	32.1210
0.1330	0.0000	32.1173
0.1340	0.0000	32.1135
0.1350	0.0000	32.1097
0.1360	0.0000	32.1059
0.1370	0.0000	32.1021
0.1380	0.0000	32.0984
0.1390	0.0000	32.0946
0.1400	0.0000	32.0908
0.1410	0.0000	32.0870
0.1420	0.0000	32.0832
0.1430	0.0000	32.0795
0.1440	0.0000	32.0757
0.1450	0.0000	32.0719
0.1460	0.0000	32.0681
0.1470	0.0000	32.0643
0.1480	0.0000	32.0606
0.1490	0.0000	32.0568
0.1500	0.0000	32.0530
0.1510	0.0000	32.0492
0.1520	0.0000	32.0454
0.1530	0.0000	32.0417
0.1540	0.0000	32.0379
0.1550	0.0000	32.0341
0.1560	0.0000	32.0303
0.1570	0.0000	32.0265
0.1580	0.0000	32.0228
0.1590	0.0000	32.0190
0.1600	0.0000	32.0152
0.1610	0.0000	32.0114
0.1620	0.0000	32.0076
0.1630	0.0000	32.0039
0.1640	0.0000	32.0001
0.1650	0.0000	31.9963
0.1660	0.0000	31.9925
0.1670	0.0000	31.9887
0.1680	0.0000	31.9850
0.1690	0.0000	31.9812
0.1700	0.0000	31.9774
0.1710	0.0000	31.9736
0.1720	0.0000	31.9698
0.1730	0.0000	31.9661
0.1740	0.0000	31.9623
0.1750	0.0000	31.9585
0.1760	0.0000	31.9547
0.1770	0.0000	31.9509
0.1780	0.0000	31.9472
0.1790	0.0000	31.9434
0.1800	0.0000	31.9396
